<svg width="16" height="16" viewBox="0 0 16 16" fill="none" xmlns="http://www.w3.org/2000/svg">
<path d="M11.1358 3.15277C11.3733 2.99444 11.3733 2.64545 11.1358 2.48713L8.02688 0.414532C7.76106 0.237318 7.405 0.427874 7.405 0.747352V2.13377C6.40868 2.21373 5.44641 2.54688 4.61103 3.10506C3.64489 3.75061 2.89188 4.66816 2.44721 5.74168C2.00255 6.8152 1.8862 7.99646 2.11289 9.1361C2.33958 10.2757 2.89912 11.3226 3.72075 12.1442C4.54238 12.9658 5.58921 13.5254 6.72885 13.7521C7.86849 13.9787 9.04975 13.8624 10.1233 13.4177C11.1968 12.9731 12.1143 12.2201 12.7599 11.2539C13.2744 10.4839 13.5977 9.60616 13.7078 8.69328C13.7544 8.30672 13.4344 7.98995 13.045 7.98995C12.6556 7.98995 12.3457 8.30752 12.2845 8.69204C12.1836 9.3255 11.9469 9.93265 11.5875 10.4706C11.0969 11.2048 10.3996 11.7771 9.58368 12.1151C8.76781 12.453 7.87005 12.5414 7.00392 12.3692C6.1378 12.1969 5.34221 11.7716 4.71777 11.1472C4.09333 10.5227 3.66808 9.72715 3.4958 8.86102C3.32351 7.9949 3.41194 7.09714 3.74988 6.28126C4.08783 5.46539 4.66012 4.76805 5.39438 4.27743C5.99769 3.87432 6.68808 3.62563 7.405 3.54975V4.89254C7.405 5.21202 7.76106 5.40257 8.02688 5.22536L11.1358 3.15277Z" fill="black"/>
</svg>
