<svg width="16" height="16" viewBox="0 0 16 16" fill="none" xmlns="http://www.w3.org/2000/svg">
<path d="M11.1606 12.1909C11.4535 12.4838 11.9283 12.4838 12.2212 12.1909C12.5141 11.898 12.5141 11.4231 12.2212 11.1302L5.591 4.5L10.114 4.5C10.5282 4.5 10.864 4.16422 10.864 3.75C10.864 3.33579 10.5282 3 10.114 3L4.92614 3C4.73686 2.99998 4.55251 2.99996 4.39639 3.01271C4.22495 3.02672 4.02265 3.05977 3.81908 3.16349C3.53684 3.3073 3.30736 3.53677 3.16355 3.81902C3.05983 4.02259 3.02678 4.22489 3.01277 4.39633C3.00002 4.55244 3.00004 4.73678 3.00006 4.92606L3.00006 10.114C3.00006 10.5282 3.33585 10.864 3.75006 10.864C4.16428 10.864 4.50006 10.5282 4.50006 10.114V5.53039L11.1606 12.1909Z" fill="black"/>
</svg>
