<svg width="16" height="16" viewBox="0 0 16 16" fill="none" xmlns="http://www.w3.org/2000/svg">
<path d="M5.95999 1.8C5.66924 1.94483 5.39859 2.11943 5.14945 2.32102L6.21983 3.3914C6.55122 3.15008 6.93759 2.98884 7.30286 2.8069C7.37648 2.39791 7.40544 1.5 7.99997 1.5C8.59452 1.5 8.6235 2.39792 8.69712 2.80692L9.37123 3.14267C10.4685 3.6892 11.3 5.00282 11.3 7.00001V8.47157L14 11.1716V10.4667L12.8 9.13332V7.00001C12.8 4.59998 11.78 2.66666 10.04 1.8C9.85998 0.800018 8.95997 0 7.99997 0C7.03995 0 6.13999 0.800018 5.95999 1.8Z" fill="black"/>
<path d="M3.25204 6.08046L4.7 7.52843V9.70893L3.5 11.0423V11.5H8.67157L10.1716 13H2V10.4667L3.2 9.13332V7.00001C3.2 6.685 3.21757 6.37803 3.25204 6.08046Z" fill="black"/>
<path d="M10 14H6C6 15.0909 6.9091 16 7.99999 16C9.09087 16 10 15.0909 10 14Z" fill="black"/>
<path d="M2.53033 1.46967C2.23744 1.17678 1.76256 1.17678 1.46967 1.46967C1.17678 1.76256 1.17678 2.23744 1.46967 2.53033L13.4697 14.5303C13.7626 14.8232 14.2374 14.8232 14.5303 14.5303C14.8232 14.2374 14.8232 13.7626 14.5303 13.4697L2.53033 1.46967Z" fill="black"/>
</svg>
