<svg width="16" height="16" viewBox="0 0 16 16" fill="none" xmlns="http://www.w3.org/2000/svg">
<path fill-rule="evenodd" clip-rule="evenodd" d="M5.05764 3.41473C5.01918 3.60809 5 3.80414 5 4.00003H4C2.59987 4.00003 1.8998 4.00003 1.36502 4.27251C0.894619 4.5122 0.512167 4.89465 0.272483 5.36505C0 5.89983 0 6.5999 0 8.00003C0 8.55231 0.447715 9.00003 1 9.00003H6.5C6.5 8.44774 6.94772 8 7.5 8H8.5C9.05229 8 9.5 8.44772 9.5 9L15 9.00003C15.5523 9.00003 16 8.55231 16 8.00003C16 6.5999 16 5.89983 15.7275 5.36505C15.4878 4.89465 15.1054 4.5122 14.635 4.27251C14.1002 4.00003 13.4001 4.00003 12 4.00003H11C11 3.80414 10.9808 3.60809 10.9424 3.41473C10.8526 2.96341 10.6602 2.53879 10.3801 2.17372C10.0999 1.80864 9.73957 1.51291 9.32687 1.30938C8.91416 1.10586 8.46016 1 8 1C7.53984 1 7.08584 1.10586 6.67313 1.30938C6.26043 1.51291 5.90007 1.80864 5.61994 2.17372C5.33981 2.53879 5.14742 2.96341 5.05764 3.41473ZM6.52882 3.70736C6.50959 3.80405 6.5 3.90208 6.5 4.00003H9.5C9.5 3.90208 9.49041 3.80405 9.47118 3.70736C9.42629 3.4817 9.33009 3.26939 9.19003 3.08686C9.04996 2.90432 8.86979 2.75645 8.66343 2.65469C8.45708 2.55293 8.23008 2.5 8 2.5C7.76992 2.5 7.54292 2.55293 7.33657 2.65469C7.13021 2.75645 6.95003 2.90432 6.80997 3.08686C6.66991 3.26939 6.57371 3.4817 6.52882 3.70736Z" fill="black"/>
<path d="M6.5 10C6.50002 10.5523 6.94772 11 7.5 11H8.5C9.05227 11 9.49998 10.5523 9.5 10H15V11C15 12.4001 15 13.1002 14.7275 13.635C14.4878 14.1054 14.1054 14.4878 13.635 14.7275C13.1002 15 12.4001 15 11 15H5C3.59987 15 2.8998 15 2.36502 14.7275C1.89462 14.4878 1.51217 14.1054 1.27248 13.635C1 13.1002 1 12.4001 1 11V10H6.5Z" fill="black"/>
</svg>
