<svg width="16" height="16" viewBox="0 0 16 16" fill="none" xmlns="http://www.w3.org/2000/svg">
<path d="M7.47855 0.318593C7.79866 0.122969 8.20134 0.122969 8.52145 0.318593L15.7869 4.75862C16.1317 4.96927 15.9823 5.49993 15.5784 5.49993H0.421636C0.0176556 5.49993 -0.131652 4.96927 0.213057 4.75862L7.47855 0.318593Z" fill="black"/>
<path d="M0 15.2499C0 14.8357 0.335786 14.4999 0.75 14.4999H15.25C15.6642 14.4999 16 14.8357 16 15.2499C16 15.6641 15.6642 15.9999 15.25 15.9999H0.75C0.335786 15.9999 0 15.6641 0 15.2499Z" fill="black"/>
<path d="M1.5 6.99993C1.22386 6.99993 1 7.22379 1 7.49993C1 7.77607 1.22386 7.99993 1.5 7.99993H2V11.9999H1.5C1.22386 11.9999 1 12.2238 1 12.4999C1 12.7761 1.22386 12.9999 1.5 12.9999H4C4.27614 12.9999 4.5 12.7761 4.5 12.4999C4.5 12.2238 4.27614 11.9999 4 11.9999H3.5V7.99993H4C4.27614 7.99993 4.5 7.77607 4.5 7.49993C4.5 7.22379 4.27614 6.99993 4 6.99993H1.5Z" fill="black"/>
<path d="M7 7.99993V11.9999H6.5C6.22386 11.9999 6 12.2238 6 12.4999C6 12.7761 6.22386 12.9999 6.5 12.9999H9.5C9.77614 12.9999 10 12.7761 10 12.4999C10 12.2238 9.77614 11.9999 9.5 11.9999H9V7.99993H9.5C9.77614 7.99993 10 7.77607 10 7.49993C10 7.22379 9.77614 6.99993 9.5 6.99993H6.5C6.22386 6.99993 6 7.22379 6 7.49993C6 7.77607 6.22386 7.99993 6.5 7.99993H7Z" fill="black"/>
<path d="M12.5 11.9999V7.99993H12C11.7239 7.99993 11.5 7.77607 11.5 7.49993C11.5 7.22379 11.7239 6.99993 12 6.99993H14.5C14.7761 6.99993 15 7.22379 15 7.49993C15 7.77607 14.7761 7.99993 14.5 7.99993H14V11.9999H14.5C14.7761 11.9999 15 12.2238 15 12.4999C15 12.7761 14.7761 12.9999 14.5 12.9999H12C11.7239 12.9999 11.5 12.7761 11.5 12.4999C11.5 12.2238 11.7239 11.9999 12 11.9999H12.5Z" fill="black"/>
</svg>
