<svg width="16" height="16" viewBox="0 0 16 16" fill="none" xmlns="http://www.w3.org/2000/svg">
<path d="M4 6.99988H3.5H1.5L1.49275 6.99993C1.21995 7.00381 1 7.22616 1 7.49988C1 7.77602 1.22386 7.99988 1.5 7.99988H2V11.9999H1.5C1.22386 11.9999 1 12.2237 1 12.4999C1 12.776 1.22386 12.9999 1.5 12.9999H4C4.27613 12.9999 4.49997 12.776 4.5 12.4999C4.5 12.2238 4.27614 11.9999 4 11.9999H3.5V7.99988H4C4.27613 7.99988 4.49997 7.776 4.5 7.49988C4.5 7.22616 4.28005 7.00381 4.00725 6.99993L4 6.99988Z" fill="black"/>
<path d="M6 7.49988C6.00003 7.22376 6.22387 6.99993 6.5 6.99993H9.5C9.77614 6.99993 10 7.22379 10 7.49993C10 7.77607 9.77614 7.99993 9.5 7.99993H9V11.9999H9.5C9.77614 11.9999 10 12.2238 10 12.4999C10 12.7761 9.77614 12.9999 9.5 12.9999H6.5C6.22386 12.9999 6 12.7761 6 12.4999C6.00003 12.2238 6.22387 11.9999 6.5 11.9999H7V7.99993H6.5C6.22386 7.99993 6 7.77602 6 7.49988Z" fill="black"/>
<path d="M14 11.9999H14.5C14.7761 11.9999 15 12.2238 15 12.4999C15 12.7761 14.7761 12.9999 14.5 12.9999H12C11.7239 12.9999 11.5 12.7761 11.5 12.4999C11.5 12.2238 11.7239 11.9999 12 11.9999H12.5V7.99993H12C11.7239 7.99993 11.5 7.77607 11.5 7.49993C11.5 7.22379 11.7239 6.99993 12 6.99993H14.5C14.7761 6.99993 15 7.22379 15 7.49993C15 7.77607 14.7761 7.99993 14.5 7.99993H14V11.9999Z" fill="black"/>
<path fill-rule="evenodd" clip-rule="evenodd" d="M15.5784 5.49993C15.9823 5.49993 16.1317 4.96927 15.7869 4.75862L8.52145 0.318593C8.20134 0.122969 7.79866 0.122969 7.47855 0.318593L0.213057 4.75862C-0.131652 4.96927 0.0176556 5.49993 0.421636 5.49993H15.5784ZM4.33114 3.99993H11.6689L8 1.75785L4.33114 3.99993Z" fill="black"/>
<path d="M0.75 14.4999C0.335786 14.4999 0 14.8357 0 15.2499C0 15.6641 0.335786 15.9999 0.75 15.9999H15.25C15.6642 15.9999 16 15.6641 16 15.2499C16 14.8357 15.6642 14.4999 15.25 14.4999H0.75Z" fill="black"/>
</svg>
