<svg width="16" height="16" viewBox="0 0 16 16" fill="none" xmlns="http://www.w3.org/2000/svg">
<path fill-rule="evenodd" clip-rule="evenodd" d="M2.1046 13.6419C1.59998 13.221 1 12.5477 1 11.7896L1.00003 6.5C0.447747 6.5 0 6.05228 0 5.5V4C0 3.44772 0.447747 3.36862 1.00003 3.36862C1.00003 0.420938 4.29417 0 8.00002 0C11.7045 0 14.9988 0.420626 15 3.36536C15.5523 3.36536 16 3.44772 16 4V5.5C16 6.05228 15.5523 6.5 15 6.5V11.7908C15 12.5489 14.4 13.2222 13.8942 13.6431V14.7373C13.8942 15.4105 13.3046 16 12.6314 16C11.9581 16 11.3686 15.4105 11.3686 14.7373V14.3163H4.63139V14.7373C4.63139 15.4105 4.04307 16 3.3686 16C2.69414 16 2.10585 15.4105 2.1046 14.736V13.6419ZM4.21048 12.6314C3.53726 12.6314 2.9477 12.0419 2.9477 11.3686C2.9477 10.6954 3.53723 10.1058 4.21048 10.1058C4.88373 10.1058 5.47326 10.6954 5.47326 11.3686C5.47326 12.0418 4.88373 12.6314 4.21048 12.6314ZM11.7896 12.6314C11.1163 12.6314 10.5268 12.0419 10.5268 11.3686C10.5268 10.6954 11.1163 10.1058 11.7896 10.1058C12.4628 10.1058 13.0523 10.6954 13.0523 11.3686C13.0523 12.0418 12.4628 12.6314 11.7896 12.6314ZM3.5 9C2.94772 9 2.5 8.55228 2.5 8V4C2.5 2.89543 3.39543 2 4.5 2H11.5C12.6046 2 13.5 2.89543 13.5 4V8C13.5 8.55229 13.0523 9 12.5 9H3.5Z" fill="black"/>
</svg>
