<svg width="16" height="16" viewBox="0 0 16 16" fill="none" xmlns="http://www.w3.org/2000/svg">
<path fill-rule="evenodd" clip-rule="evenodd" d="M6.12109 6.45083e-07C5.72573 -1.2766e-05 5.38466 -2.43355e-05 5.10373 0.0229285C4.80722 0.0471542 4.51231 0.100641 4.22852 0.245237C3.80516 0.460952 3.46095 0.805158 3.24524 1.22852C3.10064 1.51231 3.04715 1.80722 3.02293 2.10373C2.99998 2.38465 2.99999 2.72571 3 3.12106V6H13V3.12108C13 2.72572 13 2.38466 12.9771 2.10373C12.9528 1.80722 12.8994 1.51231 12.7548 1.22852C12.5391 0.805158 12.1948 0.460952 11.7715 0.245237C11.4877 0.100641 11.1928 0.0471542 10.8963 0.0229285C10.6153 -2.43895e-05 10.2743 -1.2766e-05 9.87891 6.45083e-07H6.12109ZM4.90951 1.58175C4.94659 1.56285 5.02213 1.53459 5.22588 1.51795C5.43838 1.50058 5.71759 1.5 6.15 1.5H9.85C10.2824 1.5 10.5616 1.50058 10.7741 1.51795C10.9779 1.53459 11.0534 1.56285 11.0905 1.58175C11.2316 1.65365 11.3464 1.76839 11.4183 1.90951C11.4372 1.94659 11.4654 2.02213 11.4821 2.22588C11.4994 2.43838 11.5 2.71759 11.5 3.15V4.5H4.5V3.15C4.5 2.71759 4.50059 2.43838 4.51795 2.22588C4.53459 2.02213 4.56285 1.94659 4.58175 1.90951C4.65365 1.76839 4.76839 1.65365 4.90951 1.58175Z" fill="black"/>
<path d="M3 7.5H7V11H3V7.5Z" fill="black"/>
<path d="M3 12.5H7V16H5.4C4.55992 16 4.13988 16 3.81902 15.8365C3.53677 15.6927 3.3073 15.4632 3.16349 15.181C3 14.8601 3 14.4401 3 13.6V12.5Z" fill="black"/>
<path d="M8.5 7.5H13V13.6C13 14.4401 13 14.8601 12.8365 15.181C12.6927 15.4632 12.4632 15.6927 12.181 15.8365C11.8601 16 11.4401 16 10.6 16H8.5V7.5Z" fill="black"/>
</svg>
