<svg width="16" height="16" viewBox="0 0 16 16" fill="none" xmlns="http://www.w3.org/2000/svg">
<path fill-rule="evenodd" clip-rule="evenodd" d="M3.364 6.6026C3.58354 6.25135 4.04625 6.14457 4.3975 6.3641L7.7615 8.4666C7.88463 8.54356 7.94819 8.58288 7.99586 8.60866C7.9973 8.60944 7.99868 8.61019 8 8.61089C8.00132 8.61019 8.0027 8.60944 8.00415 8.60866C8.05181 8.58288 8.11537 8.54356 8.2385 8.4666L11.6025 6.3641C11.9538 6.14457 12.4165 6.25135 12.636 6.6026C12.8555 6.95385 12.7488 7.41657 12.3975 7.6361L9.0335 9.7386C9.01771 9.74847 9.00151 9.75868 8.98491 9.76915C8.80798 9.88067 8.58562 10.0208 8.33238 10.0784C8.11358 10.1281 7.88642 10.1281 7.66762 10.0784C7.41438 10.0208 7.19203 9.88067 7.0151 9.76915C6.9985 9.75868 6.98229 9.74847 6.9665 9.7386L3.6025 7.6361C3.25125 7.41657 3.14447 6.95385 3.364 6.6026Z" fill="black"/>
</svg>
