<svg width="16" height="16" viewBox="0 0 16 16" fill="none" xmlns="http://www.w3.org/2000/svg">
<path d="M6.24999 12.7631C7.29852 13.3685 8.51751 13.611 9.71789 13.4529C10.9183 13.2949 12.033 12.7452 12.8891 11.8891C13.7452 11.033 14.2949 9.91828 14.4529 8.7179C14.611 7.51752 14.3685 6.29853 13.7631 5.25C13.1578 4.20147 12.2233 3.38199 11.1048 2.91866C9.98618 2.45534 8.74597 2.37405 7.57649 2.68741C6.407 3.00077 5.3736 3.69127 4.63655 4.65181C3.8995 5.61236 3.49999 6.78926 3.49999 8L4.99999 8C5.41201 8 5.64721 8.47038 5.39999 8.8L3.39999 11.4667C3.19999 11.7333 2.79999 11.7333 2.59999 11.4667L0.599992 8.8C0.352779 8.47038 0.58797 8 0.999992 8H1.99999C1.99999 6.45906 2.50846 4.96118 3.44652 3.73867C4.38458 2.51616 5.69983 1.63735 7.18826 1.23852C8.67669 0.839697 10.2551 0.943154 11.6788 1.53285C13.1024 2.12254 14.2917 3.16551 15.0622 4.5C15.8326 5.8345 16.1412 7.38593 15.9401 8.91369C15.739 10.4414 15.0393 11.8601 13.9497 12.9497C12.8601 14.0394 11.4414 14.739 9.91368 14.9401C8.38592 15.1412 6.83449 14.8326 5.49999 14.0622C5.14127 13.8551 5.01837 13.3964 5.22547 13.0377C5.43258 12.6789 5.89127 12.556 6.24999 12.7631Z" fill="black"/>
<path d="M8.75 4.00001C8.33579 4.00001 8 4.3358 8 4.75001V8.9014L10.7099 10.708C11.0546 10.9378 11.5202 10.8447 11.75 10.5C11.9798 10.1554 11.8866 9.68971 11.542 9.45995L9.5 8.09862V4.75001C9.5 4.3358 9.16421 4.00001 8.75 4.00001Z" fill="black"/>
</svg>
