<svg width="16" height="16" viewBox="0 0 16 16" fill="none" xmlns="http://www.w3.org/2000/svg">
<path d="M3 10C3 9.44772 3.44772 9 4 9H6C6.55228 9 7 9.44772 7 10C7 10.5523 6.55228 11 6 11H4C3.44772 11 3 10.5523 3 10Z" fill="black"/>
<path fill-rule="evenodd" clip-rule="evenodd" d="M16 6.00001C16 4.59987 16 3.8998 15.7275 3.36502C15.4878 2.89462 15.1054 2.51217 14.635 2.27248C14.1002 2 13.4001 2 12 2H4C2.59987 2 1.8998 2 1.36502 2.27248C0.894619 2.51217 0.512167 2.89462 0.272484 3.36502C0 3.8998 0 4.59987 0 6.00001V10C0 11.4001 0 12.1002 0.272484 12.635C0.512167 13.1054 0.894619 13.4878 1.36502 13.7275C1.8998 14 2.59987 14 4 14H12C13.4001 14 14.1002 14 14.635 13.7275C15.1054 13.4878 15.4878 13.1054 15.7275 12.635C16 12.1002 16 11.4001 16 10V6.00001ZM12 3.5H4C3.27518 3.5 2.82178 3.50117 2.48015 3.52908C2.15603 3.55556 2.0667 3.59845 2.04601 3.60899C1.85785 3.70487 1.70487 3.85785 1.60899 4.04601C1.59845 4.0667 1.55556 4.15603 1.52908 4.48015C1.50117 4.82179 1.5 4.77519 1.5 5.5H14.5C14.5 4.77519 14.4988 4.82179 14.4709 4.48015C14.4444 4.15603 14.4015 4.0667 14.391 4.04601C14.2951 3.85785 14.1422 3.70487 13.954 3.60899C13.9333 3.59845 13.844 3.55556 13.5198 3.52908C13.1782 3.50117 12.7248 3.5 12 3.5ZM14.5 7H1.5V10C1.5 10.7248 1.50117 11.1782 1.52908 11.5198C1.55556 11.844 1.59845 11.9333 1.60899 11.954C1.70487 12.1422 1.85785 12.2951 2.04601 12.391C2.0667 12.4015 2.15603 12.4444 2.48015 12.4709C2.82178 12.4988 3.27518 12.5 4 12.5H12C12.7248 12.5 13.1782 12.4988 13.5198 12.4709C13.844 12.4444 13.9333 12.4015 13.954 12.391C14.1422 12.2951 14.2951 12.1422 14.391 11.954C14.4015 11.9333 14.4444 11.844 14.4709 11.5198C14.4988 11.1782 14.5 10.7248 14.5 10V7Z" fill="black"/>
</svg>
