<svg width="16" height="16" viewBox="0 0 16 16" fill="none" xmlns="http://www.w3.org/2000/svg">
<path fill-rule="evenodd" clip-rule="evenodd" d="M3.85033 2.34118C3.67825 2.48262 3.548 2.67798 3.28751 3.06872L0.591673 7.11248C0.377835 7.43324 0.270916 7.59362 0.229376 7.76696C0.192666 7.92015 0.192666 8.07985 0.229376 8.23304C0.270916 8.40638 0.377835 8.56676 0.591673 8.88752L3.28751 12.9313C3.548 13.322 3.67825 13.5174 3.85033 13.6588C4.00267 13.784 4.17821 13.878 4.36689 13.9353C4.58002 14 4.81483 14 5.28443 14H11C12.4001 14 13.1002 14 13.635 13.7275C14.1054 13.4878 14.4878 13.1054 14.7275 12.635C15 12.1002 15 11.4001 15 10V6C15 4.59987 15 3.8998 14.7275 3.36502C14.4878 2.89462 14.1054 2.51217 13.635 2.27248C13.1002 2 12.4001 2 11 2H5.28443C4.81483 2 4.58002 2 4.36689 2.06473C4.17821 2.12203 4.00267 2.21597 3.85033 2.34118ZM7.53033 5.46967C7.23744 5.17678 6.76256 5.17678 6.46967 5.46967C6.17678 5.76256 6.17678 6.23744 6.46967 6.53033L7.93934 8L6.46967 9.46967C6.17678 9.76256 6.17678 10.2374 6.46967 10.5303C6.76256 10.8232 7.23744 10.8232 7.53033 10.5303L9 9.06066L10.4697 10.5303C10.7626 10.8232 11.2374 10.8232 11.5303 10.5303C11.8232 10.2374 11.8232 9.76256 11.5303 9.46967L10.0607 8L11.5303 6.53033C11.8232 6.23744 11.8232 5.76256 11.5303 5.46967C11.2374 5.17678 10.7626 5.17678 10.4697 5.46967L9 6.93934L7.53033 5.46967Z" fill="black"/>
</svg>
