<svg width="16" height="16" viewBox="0 0 16 16" fill="none" xmlns="http://www.w3.org/2000/svg">
<path d="M5.5 2H9.97118L13 5.16639V13.3999C13.8284 13.3999 14.5 13.3284 14.5 12.5V4.58078L10.6288 0.5H6.5C5.67157 0.5 5.5 1.17157 5.5 2Z" fill="black"/>
<path fill-rule="evenodd" clip-rule="evenodd" d="M3.75 3.5C2.7835 3.5 2 4.2835 2 5.25V14.25C2 15.2165 2.7835 16 3.75 16H9.75C10.7165 16 11.5 15.2165 11.5 14.25V7.58078L7.62882 3.5H3.75ZM3.5 5.25C3.5 5.11193 3.61193 5 3.75 5H6.97118L10 8.16639V14.25C10 14.3881 9.88807 14.5 9.75 14.5H3.75C3.61193 14.5 3.5 14.3881 3.5 14.25V5.25Z" fill="black"/>
</svg>
