<svg width="16" height="16" viewBox="0 0 16 16" fill="none" xmlns="http://www.w3.org/2000/svg">
<path fill-rule="evenodd" clip-rule="evenodd" d="M3 10.5C3 7.99215 4.13209 6.36479 5.13443 4.92395C6.05864 3.59542 6.87255 2.42545 6.587 0.870017C6.55795 0.711829 6.70732 0.571017 6.85621 0.631839C9.4562 1.69397 10.3948 4.36628 10.0564 7.11115C10.0364 7.27338 10.2034 7.39318 10.3376 7.29982C11.0176 6.82668 11.3992 6.09093 11.4825 5.323C11.4986 5.17519 11.6551 5.08317 11.7685 5.17934C12.5895 5.87569 13 7.68785 13 9.50001C13 11.5 12 15 8 15C5.5 15 3 13.5 3 10.5ZM8 13.5C8.82843 13.5 9.5 12.8284 9.5 12C9.5 10.779 8.50606 9.55796 8.13635 9.14601C8.06258 9.06381 7.93742 9.06381 7.86365 9.14601C7.49394 9.55796 6.5 10.779 6.5 12C6.5 12.8284 7.17157 13.5 8 13.5Z" fill="black"/>
</svg>
