<svg width="16" height="16" viewBox="0 0 16 16" fill="none" xmlns="http://www.w3.org/2000/svg">
<path d="M14 8V11C15 11 15.2907 10.2901 15.4239 9.96847C15.5 9.7847 15.5 9.58032 15.5 9.17157V7C15.5 4.5 14 0.5 8.00003 0.5C2.00003 0.5 0.5 4.5 0.5 7V9.17157C0.5 9.58032 0.5 9.7847 0.57612 9.96847C0.722582 10.3221 1.00003 11 2.00003 11V8C2.00003 5.5 2.98692 2 8.00003 2C13.0131 2 14 5.5 14 8Z" fill="black"/>
<path d="M3.00003 10C3.00003 9.44771 3.44774 9 4.00003 9H4.50003C5.32845 9 6.00003 9.67157 6.00003 10.5V12.5C6.00003 13.3284 5.32845 14 4.50003 14H4.00003C3.44774 14 3.00003 13.5523 3.00003 13V10Z" fill="black"/>
<path d="M11.5 9C10.6716 9 10 9.67157 10 10.5V12.5C10 13.3284 10.6716 14 11.5 14H12C12.5523 14 13 13.5523 13 13V10C13 9.44771 12.5523 9 12 9H11.5Z" fill="black"/>
</svg>
