<svg width="16" height="16" viewBox="0 0 16 16" fill="none" xmlns="http://www.w3.org/2000/svg">
<path fill-rule="evenodd" clip-rule="evenodd" d="M8 15C11.866 15 15 11.866 15 8C15 4.13401 11.866 1 8 1C4.13401 1 1 4.13401 1 8C1 11.866 4.13401 15 8 15ZM9 5C9 5.55228 8.55228 6 8 6C7.44772 6 7 5.55228 7 5C7 4.44772 7.44772 4 8 4C8.55228 4 9 4.44772 9 5ZM6 7.75C6 7.33579 6.33579 7 6.75 7H8C8.55228 7 9 7.44772 9 8V10.5H9.25C9.66421 10.5 10 10.8358 10 11.25C10 11.6642 9.66421 12 9.25 12H6.75C6.33579 12 6 11.6642 6 11.25C6 10.8358 6.33579 10.5 6.75 10.5H7.5V8.5H6.75C6.33579 8.5 6 8.16421 6 7.75Z" fill="black"/>
</svg>
