<svg width="16" height="16" viewBox="0 0 16 16" fill="none" xmlns="http://www.w3.org/2000/svg">
<path d="M10.2033 5.7967C10.7324 6.3258 11.5902 6.3258 12.1193 5.7967C12.6484 5.26761 12.6484 4.40977 12.1193 3.88067C11.5902 3.35157 10.7324 3.35157 10.2033 3.88067C9.67419 4.40977 9.67419 5.26761 10.2033 5.7967Z" fill="black"/>
<path fill-rule="evenodd" clip-rule="evenodd" d="M6.90502 2.38888C8.75686 0.537039 11.7593 0.537039 13.6111 2.38888C15.463 4.24073 15.463 7.24316 13.6111 9.095C12.3618 10.3443 10.5897 10.7505 9 10.3146C9 10.3146 8.91065 11.5052 9 12H6V15L1 15L1.00004 11.7839L5.70713 7.0768C5.23692 5.46858 5.63519 3.65872 6.90502 2.38888ZM12.6531 3.3469C11.3304 2.02415 9.18578 2.02415 7.86304 3.3469C6.87504 4.3349 6.62403 5.78257 7.114 7.0046L7.28039 7.41958L2.35487 12.3451L2.35485 13.6452L4.61293 13.6452V12.3451L6.02253 10.6452H7.5V9.5L8.38984 8.56816C9.70475 9.43976 11.4948 9.29533 12.6531 8.13698C13.9758 6.81424 13.9758 4.66964 12.6531 3.3469Z" fill="black"/>
</svg>
