<svg width="16" height="16" viewBox="0 0 16 16" fill="none" xmlns="http://www.w3.org/2000/svg">
<path d="M7.08041 0.930664C3.28719 0.930664 0.528442 4.49404 0.528442 7.36769C0.528442 9.89651 0.528442 12.5403 0.528442 15.0691H8.68966C12.1381 15.0691 15.4715 12.0805 15.4715 8.17232C15.4715 5.75844 15.4715 3.34457 15.4715 0.930664H7.08041ZM8.68969 12.5403C6.27582 13.115 3.74697 11.6207 3.28719 9.09188C2.71244 6.67801 4.32172 4.26413 6.7356 3.68938C7.08044 3.57445 7.42529 3.57445 7.77013 3.57445C8.22991 3.57445 8.57475 3.68938 9.03454 3.80432C8.57472 4.03423 8.34485 4.26413 8.11497 4.60895C6.16088 4.37904 4.43666 5.75841 4.20679 7.71251C3.86194 9.6666 5.35625 11.5057 7.31035 11.7356C9.26444 11.9655 10.9887 10.5862 11.2185 8.63207C11.2185 8.40219 11.2185 8.05732 11.2185 7.82744C11.5634 7.59754 11.7933 7.36763 12.1381 7.13776C12.7128 9.55163 11.1036 12.0805 8.68969 12.5403V12.5403ZM13.2875 4.49398C13.1726 4.95379 12.9427 5.41354 12.5978 5.87332C12.0231 6.79288 11.1035 7.36763 10.069 7.59751C9.95407 7.59751 9.60919 7.71248 9.26438 7.71248C9.14944 7.71248 8.80457 7.82745 8.34482 7.94238C8.57469 7.82741 8.91957 7.71248 9.14944 7.71248C9.26438 7.71248 9.72419 7.59751 9.95407 7.48257C10.2989 7.3676 10.7587 7.13773 11.1035 6.90782C11.7932 6.44801 12.138 5.98826 12.3679 5.64341C12.5978 5.29857 12.7128 4.95373 12.7128 4.60888C12.7128 4.26404 12.7128 3.80426 12.7128 3.80426C12.4829 3.80426 11.7932 3.91919 11.3334 4.03413C10.7587 4.37898 10.184 4.60888 9.72419 5.06866C9.49432 5.29857 9.26438 5.52848 8.91957 5.98823C8.80463 6.21813 8.68969 6.44804 8.57472 6.79285C8.45979 7.02276 8.34485 7.3676 8.11491 7.59748C7.99994 7.82738 7.6551 8.05729 7.6551 8.05729C7.6551 8.05729 7.6551 7.94232 7.6551 7.71244C7.6551 7.48254 7.6551 7.13769 7.6551 6.90782C7.77007 6.33307 7.99994 5.75835 8.34479 5.18363C8.57466 4.83879 8.91954 4.37901 9.26435 4.1491C9.72416 3.80426 10.2989 3.45941 10.9886 3.34448C11.3334 3.1146 12.0231 3.1146 13.4024 2.76976C13.4024 2.76976 13.5174 3.68932 13.2875 4.49394L13.2875 4.49398Z" fill="black"/>
</svg>
