<svg width="16" height="16" viewBox="0 0 16 16" fill="none" xmlns="http://www.w3.org/2000/svg">
<path d="M5 12.25C5 12.6642 5.33579 13 5.75 13H10.25C10.6642 13 11 12.6642 11 12.25C11 11.8358 10.6642 11.5 10.25 11.5H5.75C5.33579 11.5 5 11.8358 5 12.25Z" fill="black"/>
<path d="M3 8.25C3 8.66421 3.33579 9 3.75 9H12.25C12.6642 9 13 8.66421 13 8.25C13 7.83579 12.6642 7.5 12.25 7.5H3.75C3.33579 7.5 3 7.83579 3 8.25Z" fill="black"/>
<path d="M1.75 5C1.33579 5 1 4.66421 1 4.25C1 3.83579 1.33579 3.5 1.75 3.5H14.25C14.6642 3.5 15 3.83579 15 4.25C15 4.66421 14.6642 5 14.25 5H1.75Z" fill="black"/>
</svg>
