<svg width="16" height="16" viewBox="0 0 16 16" fill="none" xmlns="http://www.w3.org/2000/svg">
<path d="M13.1473 4.04864L9.39936 13.0436C9.04109 13.9034 8.86196 14.3333 8.63044 14.44C8.4301 14.5324 8.1967 14.5173 8.00985 14.4001C7.79391 14.2646 7.67137 13.8153 7.42628 12.9166L6.5 9.5L3.08339 8.57372C2.18473 8.32863 1.7354 8.20609 1.59991 7.99015C1.48266 7.8033 1.46764 7.5699 1.55997 7.36956C1.66667 7.13804 2.09658 6.95891 2.95641 6.60064L11.9514 2.85275C12.5939 2.58502 12.9152 2.45116 13.1161 2.51628C13.2905 2.57278 13.4272 2.70948 13.4837 2.88385C13.5488 3.08483 13.415 3.4061 13.1473 4.04864Z" fill="black"/>
</svg>
