<svg width="16" height="16" viewBox="0 0 16 16" fill="none" xmlns="http://www.w3.org/2000/svg">
<path d="M13.7704 2.51073C14.174 2.91427 14.1788 3.56376 13.7812 3.96138C13.3835 4.359 12.7341 4.3542 12.3305 3.95065C11.927 3.5471 11.9222 2.89763 12.3198 2.5C12.7174 2.10238 13.3669 2.10718 13.7704 2.51073Z" fill="black"/>
<path d="M9.45065 6.83051C9.8542 7.23406 9.859 7.88353 9.46138 8.28116C9.06376 8.67878 8.41428 8.67398 8.01073 8.27043C7.60718 7.86688 7.60238 7.2174 8 6.81978C8.39762 6.42216 9.0471 6.42696 9.45065 6.83051Z" fill="black"/>
<path d="M11.6213 6.12127C12.0189 5.72364 12.0141 5.07417 11.6105 4.67062C11.207 4.26707 10.5575 4.26227 10.1599 4.65989C9.76227 5.05751 9.76707 5.70699 10.1706 6.11054C10.5742 6.51409 11.2236 6.51889 11.6213 6.12127Z" fill="black"/>
<path d="M10.0311 14.8844C8.83159 14.432 6.98593 13.4323 4.77909 11.2244C2.5767 9.02103 1.57406 7.1805 1.11796 5.98292C0.773903 5.07955 1.2161 4.15277 2.00841 3.59939L2.74373 3.08581C2.95289 2.93973 3.23996 2.98447 3.39479 3.18728L4.89574 5.15335C5.13625 5.4684 5.15668 5.89952 4.94702 6.23591L4.24069 7.36924C4.15632 7.50462 4.14606 7.6729 4.22566 7.81113C4.43879 8.18119 4.96114 8.98093 5.99135 10.0116C7.02156 11.0423 7.82093 11.5649 8.19082 11.7781C8.32898 11.8578 8.49718 11.8475 8.63249 11.7631L9.7653 11.0564C10.1015 10.8467 10.5325 10.8671 10.8474 11.1077L12.8128 12.6096C13.0154 12.7644 13.0602 13.0514 12.9145 13.2607L12.4063 13.9902C11.8554 14.7811 10.9327 15.2244 10.0311 14.8844Z" fill="black"/>
</svg>
