<svg width="16" height="16" viewBox="0 0 16 16" fill="none" xmlns="http://www.w3.org/2000/svg">
<path d="M2 15V4.82843L3.5 6.32843V14.0729L4 14.3229L6 13.3229L8 14.3229L10 13.3229L10.989 13.8175L12.781 15.6095L12 16L10 15L8 16L6 15L4 16L2 15Z" fill="black"/>
<path d="M8.32843 5.5L9.82843 7H10.6C10.8209 7 11 6.82091 11 6.6V5.9C11 5.67909 10.8209 5.5 10.6 5.5H8.32843Z" fill="black"/>
<path d="M12.5 1.92705V9.67157L14 11.1716V1L12 0L10 1L8 0L6 1L4 0L3.21895 0.390524L5.01096 2.18253L6 2.67705L8 1.67705L10 2.67705L12 1.67705L12.5 1.92705Z" fill="black"/>
<path d="M5 9.4C5 9.17909 5.17909 9 5.4 9H6.17157L7.67157 10.5H5.4C5.17909 10.5 5 10.3209 5 10.1V9.4Z" fill="black"/>
<path d="M1.53033 0.46967C1.23744 0.176777 0.762563 0.176777 0.46967 0.46967C0.176777 0.762563 0.176777 1.23744 0.46967 1.53033L14.4697 15.5303C14.7626 15.8232 15.2374 15.8232 15.5303 15.5303C15.8232 15.2374 15.8232 14.7626 15.5303 14.4697L1.53033 0.46967Z" fill="black"/>
</svg>
