<svg width="16" height="16" viewBox="0 0 16 16" fill="none" xmlns="http://www.w3.org/2000/svg">
<path fill-rule="evenodd" clip-rule="evenodd" d="M2 4C2 2.59987 2 1.8998 2.27248 1.36502C2.51217 0.894619 2.89462 0.512167 3.36502 0.272484C3.8998 0 4.59987 0 6 0H10C11.4001 0 12.1002 0 12.635 0.272484C13.1054 0.512167 13.4878 0.894619 13.7275 1.36502C14 1.8998 14 2.59987 14 4V12C14 13.4001 14 14.1002 13.7275 14.635C13.4878 15.1054 13.1054 15.4878 12.635 15.7275C12.1002 16 11.4001 16 10 16H6C4.59987 16 3.8998 16 3.36502 15.7275C2.89462 15.4878 2.51217 15.1054 2.27248 14.635C2 14.1002 2 13.4001 2 12V4ZM12.2778 1.96713C12.5721 2.25861 12.5744 2.73348 12.2829 3.02777L10.0329 5.29951C9.89202 5.44173 9.70016 5.52174 9.5 5.52174H6.80853L4.77775 7.5329C4.48344 7.82437 4.00857 7.82206 3.7171 7.52775C3.42563 7.23344 3.42794 6.75857 3.72225 6.4671L5.97225 4.23884C6.11269 4.09976 6.30235 4.02174 6.5 4.02174H9.18723L11.2171 1.97223C11.5086 1.67793 11.9835 1.67564 12.2778 1.96713ZM4.25 9.5C3.83579 9.5 3.5 9.83579 3.5 10.25C3.5 10.6642 3.83579 11 4.25 11H11.75C12.1642 11 12.5 10.6642 12.5 10.25C12.5 9.83579 12.1642 9.5 11.75 9.5H4.25ZM4.25 12.5C3.83579 12.5 3.5 12.8358 3.5 13.25C3.5 13.6642 3.83579 14 4.25 14H11.75C12.1642 14 12.5 13.6642 12.5 13.25C12.5 12.8358 12.1642 12.5 11.75 12.5H4.25Z" fill="black"/>
</svg>
