<svg width="16" height="16" viewBox="0 0 16 16" fill="none" xmlns="http://www.w3.org/2000/svg">
<path d="M10.666 3.12596C11.0107 3.35573 11.1038 3.82138 10.874 4.16603L9.87404 5.66603C9.73494 5.87467 9.50076 6 9.25 6H7.06066L6.28033 6.78033C5.98744 7.07322 5.51256 7.07322 5.21967 6.78033C4.92678 6.48744 4.92678 6.01256 5.21967 5.71967L6.21967 4.71967C6.36032 4.57902 6.55109 4.5 6.75 4.5H8.84861L9.62596 3.33397C9.85573 2.98933 10.3214 2.8962 10.666 3.12596Z" fill="black"/>
<path d="M5.75 8.5C5.33579 8.5 5 8.83579 5 9.25C5 9.66421 5.33579 10 5.75 10H10.25C10.6642 10 11 9.66421 11 9.25C11 8.83579 10.6642 8.5 10.25 8.5H5.75Z" fill="black"/>
<path d="M5.75 11.5C5.33579 11.5 5 11.8358 5 12.25C5 12.6642 5.33579 13 5.75 13H10.25C10.6642 13 11 12.6642 11 12.25C11 11.8358 10.6642 11.5 10.25 11.5H5.75Z" fill="black"/>
<path fill-rule="evenodd" clip-rule="evenodd" d="M2.27248 1.36502C2 1.8998 2 2.59987 2 4V12C2 13.4001 2 14.1002 2.27248 14.635C2.51217 15.1054 2.89462 15.4878 3.36502 15.7275C3.8998 16 4.59987 16 6 16H10C11.4001 16 12.1002 16 12.635 15.7275C13.1054 15.4878 13.4878 15.1054 13.7275 14.635C14 14.1002 14 13.4001 14 12V4C14 2.59987 14 1.8998 13.7275 1.36502C13.4878 0.894619 13.1054 0.512167 12.635 0.272484C12.1002 0 11.4001 0 10 0H6C4.59987 0 3.8998 0 3.36502 0.272484C2.89462 0.512167 2.51217 0.894619 2.27248 1.36502ZM10 1.5H6C5.27518 1.5 4.82178 1.50117 4.48015 1.52908C4.15603 1.55556 4.0667 1.59845 4.04601 1.60899C3.85785 1.70487 3.70487 1.85785 3.60899 2.04601C3.59845 2.0667 3.55556 2.15603 3.52908 2.48015C3.50117 2.82178 3.5 3.27518 3.5 4V12C3.5 12.7248 3.50117 13.1782 3.52908 13.5198C3.55556 13.844 3.59845 13.9333 3.60899 13.954C3.70487 14.1422 3.85785 14.2951 4.04601 14.391C4.0667 14.4015 4.15603 14.4444 4.48015 14.4709C4.82178 14.4988 5.27518 14.5 6 14.5H10C10.7248 14.5 11.1782 14.4988 11.5198 14.4709C11.844 14.4444 11.9333 14.4015 11.954 14.391C12.1422 14.2951 12.2951 14.1422 12.391 13.954C12.4015 13.9333 12.4444 13.844 12.4709 13.5198C12.4988 13.1782 12.5 12.7248 12.5 12V4C12.5 3.27518 12.4988 2.82178 12.4709 2.48015C12.4444 2.15603 12.4015 2.0667 12.391 2.04601C12.2951 1.85785 12.1422 1.70487 11.954 1.60899C11.9333 1.59845 11.844 1.55556 11.5198 1.52908C11.1782 1.50117 10.7248 1.5 10 1.5Z" fill="black"/>
</svg>
