<svg width="16" height="16" viewBox="0 0 16 16" fill="none" xmlns="http://www.w3.org/2000/svg">
<path fill-rule="evenodd" clip-rule="evenodd" d="M7.3125 11V11.4824C7.25977 11.8516 7.00781 12.0566 6.66797 12.0566C6.32812 12.0566 6.07031 11.8516 6.02344 11.4824V11H5.37891C5.03906 11 4.83984 10.8242 4.83984 10.5312C4.83984 10.2324 5.03906 10.0625 5.37891 10.0625H6V9H5.44336C5.0625 8.99414 4.83984 8.79492 4.83984 8.46094C4.83984 8.12695 5.0625 7.92773 5.44336 7.92188H6V5.08398C6 4.33398 6.3457 4 7.10742 4H8.48438C10.1543 4 11 5.0918 11 6.5918C11 8.05078 10.207 9 8.47266 9H7.33008V10.0625H8.68945C9.02344 10.0625 9.22852 10.2324 9.22852 10.5312C9.22852 10.8242 9.02344 11 8.68945 11H7.3125ZM7.32422 5.0957H8.30859C9.26953 5.0957 9.7793 5.63672 9.7793 6.5918C9.7793 7.55273 9.28125 7.92188 8.13281 7.92188H7.32422V5.0957Z" fill="black"/>
<path fill-rule="evenodd" clip-rule="evenodd" d="M16 8C16 12.4183 12.4183 16 8 16C3.58172 16 0 12.4183 0 8C0 3.58172 3.58172 0 8 0C12.4183 0 16 3.58172 16 8ZM14.5 8C14.5 11.5899 11.5899 14.5 8 14.5C4.41015 14.5 1.5 11.5899 1.5 8C1.5 4.41015 4.41015 1.5 8 1.5C11.5899 1.5 14.5 4.41015 14.5 8Z" fill="black"/>
</svg>
