<svg width="16" height="16" viewBox="0 0 16 16" fill="none" xmlns="http://www.w3.org/2000/svg">
<path d="M7.44378 0.348337C7.03279 0.481876 6.67637 0.838291 5.96354 1.55112L5.51466 2.00001H4.88001C3.87192 2.00001 3.36787 2.00001 2.98283 2.19619C2.64414 2.36877 2.36877 2.64413 2.1962 2.98282C2.00001 3.36786 2.00001 3.87191 2.00001 4.88001V5.51465L1.5512 5.96347C0.838368 6.6763 0.481952 7.03271 0.348413 7.44371C0.230949 7.80522 0.230949 8.19465 0.348413 8.55617C0.481952 8.96716 0.838368 9.32357 1.5512 10.0364L2.00001 10.4852V11.12C2.00001 12.1281 2.00001 12.6321 2.1962 13.0172C2.36877 13.3559 2.64414 13.6312 2.98283 13.8038C3.36787 14 3.87192 14 4.88001 14H5.5148L5.96354 14.4487C6.67637 15.1616 7.03279 15.518 7.44378 15.6515C7.8053 15.769 8.19472 15.769 8.55624 15.6515C8.96723 15.518 9.32365 15.1616 10.0365 14.4487L10.4852 14H11.12C12.1281 14 12.6322 14 13.0172 13.8038C13.3559 13.6312 13.6313 13.3559 13.8038 13.0172C14 12.6321 14 12.1281 14 11.12V10.4852L14.4488 10.0364C15.1617 9.32357 15.5181 8.96716 15.6516 8.55617C15.7691 8.19465 15.7691 7.80522 15.6516 7.44371C15.5181 7.03271 15.1617 6.6763 14.4488 5.96347L14 5.51465V4.88001C14 3.87191 14 3.36786 13.8038 2.98282C13.6313 2.64413 13.3559 2.36877 13.0172 2.19619C12.6322 2.00001 12.1281 2.00001 11.12 2.00001H10.4854L10.0365 1.55112C9.32365 0.838291 8.96723 0.481876 8.55624 0.348337C8.19472 0.230873 7.8053 0.230873 7.44378 0.348337Z" fill="black"/>
</svg>
