<svg width="16" height="16" viewBox="0 0 16 16" fill="none" xmlns="http://www.w3.org/2000/svg">
<path d="M7.104 1.2615C7.43724 1.1643 7.60386 1.1157 7.77345 1.09637C7.924 1.07921 8.076 1.07921 8.22655 1.09637C8.39614 1.1157 8.56276 1.1643 8.896 1.2615L12.848 2.41416C13.2611 2.53465 13.4677 2.5949 13.6209 2.71628C13.7562 2.82342 13.8614 2.96373 13.9264 3.12358C14 3.30468 14 3.51984 14 3.95016V6.9052C14 8.5796 14 9.41679 13.7574 10.167C13.5426 10.8308 13.1914 11.4424 12.7262 11.9623C12.2004 12.5499 11.4773 12.9718 10.031 13.8154L8 15.0002L5.96903 13.8154C4.52272 12.9718 3.79957 12.5499 3.27381 11.9623C2.8086 11.4424 2.45735 10.8308 2.24265 10.167C2 9.41679 2 8.5796 2 6.9052V3.95016C2 3.51984 2 3.30468 2.07362 3.12358C2.1386 2.96373 2.24383 2.82342 2.3791 2.71628C2.53233 2.5949 2.73889 2.53465 3.152 2.41416L7.104 1.2615Z" fill="black"/>
</svg>
