<svg width="16" height="16" viewBox="0 0 16 16" fill="none" xmlns="http://www.w3.org/2000/svg">
<path d="M13.5933 3.00003C13.4501 2.76389 13.1426 2.68851 12.9065 2.83166C12.6704 2.97481 12.595 3.28229 12.7381 3.51843C13.5662 4.88441 14 6.42989 14 8.00003C14 9.57016 13.5662 11.1157 12.7381 12.4816C12.595 12.7178 12.6704 13.0252 12.9065 13.1684C13.1426 13.3115 13.4501 13.2362 13.5933 13C14.5148 11.4798 15 9.75539 15 8.00003C15 6.24466 14.5148 4.52022 13.5933 3.00003Z" fill="black"/>
<path d="M6.12037 3.17054C6.42247 2.82832 7 3.03576 7 3.4865V12.5136C7 12.9643 6.42247 13.1717 6.12037 12.8295L4 10.5H2C1.44772 10.5 1 10.0653 1 9.52904V6.47102C1 5.93476 1.44772 5.50003 2 5.50003H4L6.12037 3.17054Z" fill="black"/>
<path d="M9.4641 6.00003C9.32603 5.76088 9.02024 5.67895 8.78109 5.81702C8.54194 5.95509 8.46 6.26088 8.59808 6.50003C8.86138 6.95609 9 7.47342 9 8.00003C9 8.52664 8.86138 9.04397 8.59808 9.50003C8.46001 9.73918 8.54194 10.045 8.78109 10.183C9.02024 10.3211 9.32603 10.2392 9.4641 10C9.81518 9.39195 10 8.70218 10 8.00003C10 7.29788 9.81517 6.60811 9.4641 6.00003Z" fill="black"/>
<path d="M10.8792 4.31702C11.1183 4.17895 11.4241 4.26088 11.5622 4.50003C12.1766 5.56416 12.5 6.77127 12.5 8.00003C12.5 9.22878 12.1766 10.4359 11.5622 11.5C11.4241 11.7392 11.1183 11.8211 10.8792 11.683C10.64 11.545 10.5581 11.2392 10.6962 11C11.2228 10.0879 11.5 9.05325 11.5 8.00003C11.5 6.94681 11.2228 5.91214 10.6962 5.00003C10.5581 4.76088 10.64 4.45509 10.8792 4.31702Z" fill="black"/>
</svg>
