<svg width="16" height="16" viewBox="0 0 16 16" fill="none" xmlns="http://www.w3.org/2000/svg">
<path d="M1 3.4C1 2.55992 1 2.13988 1.16349 1.81901C1.3073 1.53677 1.53677 1.3073 1.81901 1.16349C2.13988 1 2.55992 1 3.4 1H4.6C5.44008 1 5.86012 1 6.18099 1.16349C6.46323 1.3073 6.6927 1.53677 6.83651 1.81901C7 2.13988 7 2.55992 7 3.4V4.6C7 5.44008 7 5.86012 6.83651 6.18099C6.6927 6.46323 6.46323 6.6927 6.18099 6.83651C5.86012 7 5.44008 7 4.6 7H3.4C2.55992 7 2.13988 7 1.81901 6.83651C1.53677 6.6927 1.3073 6.46323 1.16349 6.18099C1 5.86012 1 5.44008 1 4.6V3.4Z" fill="black"/>
<path d="M9 3.4C9 2.55992 9 2.13988 9.16349 1.81901C9.3073 1.53677 9.53677 1.3073 9.81901 1.16349C10.1399 1 10.5599 1 11.4 1H12.6C13.4401 1 13.8601 1 14.181 1.16349C14.4632 1.3073 14.6927 1.53677 14.8365 1.81901C15 2.13988 15 2.55992 15 3.4V4.6C15 5.44008 15 5.86012 14.8365 6.18099C14.6927 6.46323 14.4632 6.6927 14.181 6.83651C13.8601 7 13.4401 7 12.6 7H11.4C10.5599 7 10.1399 7 9.81901 6.83651C9.53677 6.6927 9.3073 6.46323 9.16349 6.18099C9 5.86012 9 5.44008 9 4.6V3.4Z" fill="black"/>
<path d="M9 11.4C9 10.5599 9 10.1399 9.16349 9.81901C9.3073 9.53677 9.53677 9.3073 9.81901 9.16349C10.1399 9 10.5599 9 11.4 9H12.6C13.4401 9 13.8601 9 14.181 9.16349C14.4632 9.3073 14.6927 9.53677 14.8365 9.81901C15 10.1399 15 10.5599 15 11.4V12.6C15 13.4401 15 13.8601 14.8365 14.181C14.6927 14.4632 14.4632 14.6927 14.181 14.8365C13.8601 15 13.4401 15 12.6 15H11.4C10.5599 15 10.1399 15 9.81901 14.8365C9.53677 14.6927 9.3073 14.4632 9.16349 14.181C9 13.8601 9 13.4401 9 12.6V11.4Z" fill="black"/>
<path d="M1 11.4C1 10.5599 1 10.1399 1.16349 9.81901C1.3073 9.53677 1.53677 9.3073 1.81901 9.16349C2.13988 9 2.55992 9 3.4 9H4.6C5.44008 9 5.86012 9 6.18099 9.16349C6.46323 9.3073 6.6927 9.53677 6.83651 9.81901C7 10.1399 7 10.5599 7 11.4V12.6C7 13.4401 7 13.8601 6.83651 14.181C6.6927 14.4632 6.46323 14.6927 6.18099 14.8365C5.86012 15 5.44008 15 4.6 15H3.4C2.55992 15 2.13988 15 1.81901 14.8365C1.53677 14.6927 1.3073 14.4632 1.16349 14.181C1 13.8601 1 13.4401 1 12.6V11.4Z" fill="black"/>
</svg>
