<svg width="16" height="16" viewBox="0 0 16 16" fill="none" xmlns="http://www.w3.org/2000/svg">
<path fill-rule="evenodd" clip-rule="evenodd" d="M3.99982 1.63879C5.05668 1.23791 6.48439 1 8 1C9.5156 1 10.9433 1.23791 12.0002 1.63879C12.526 1.83823 12.9984 2.09093 13.3516 2.40351C14.2552 3.20319 13.9303 4.17984 13.7102 5.19493L12.1406 12.4354C11.8907 13.597 11.0704 14.246 10.2528 14.588C9.44827 14.9246 8.56106 15 8 15C7.43893 15 6.55173 14.9246 5.74717 14.588C4.92957 14.246 4.10929 13.597 3.85941 12.4354L2.28979 5.19493C2.06973 4.17984 1.74481 3.20319 2.64844 2.40351C3.00165 2.09093 3.47402 1.83823 3.99982 1.63879ZM8 5.05711C6.68913 5.05711 5.49103 4.86172 4.62582 4.55865C3.44549 4.1452 3.0296 3.45302 4.46645 2.90801C5.34192 2.57594 6.60538 2.35484 8 2.35484C9.39461 2.35484 10.6581 2.57594 11.5336 2.90801C12.9704 3.45302 12.5545 4.1452 11.3742 4.55865C10.509 4.86172 9.31087 5.05711 8 5.05711Z" fill="black"/>
</svg>
