<svg width="16" height="16" viewBox="0 0 16 16" fill="none" xmlns="http://www.w3.org/2000/svg">
<path d="M8.70711 0.646409C8.31658 0.255884 7.68342 0.255885 7.29289 0.646409L4.96967 2.96963C4.67678 3.26253 4.67678 3.7374 4.96967 4.03029C5.26256 4.32319 5.73744 4.32319 6.03033 4.03029L7.25 2.81062V8.99996C7.25 9.41418 7.58579 9.74996 8 9.74996C8.41421 9.74996 8.75 9.41418 8.75 8.99996V2.81062L9.96967 4.03029C10.2626 4.32319 10.7374 4.32319 11.0303 4.03029C11.3232 3.7374 11.3232 3.26253 11.0303 2.96963L8.70711 0.646409Z" fill="black"/>
<path d="M16 9.99985L14.1652 6.94187C13.7403 6.23374 13.5279 5.87961 13.2354 5.62242C12.9765 5.39482 12.6734 5.2232 12.3451 5.11834C11.974 4.99985 11.5611 4.99985 10.7352 4.99985H10V6.49985H10.7352C11.6602 6.49985 11.7931 6.5167 11.8887 6.54725C12.0201 6.58919 12.1413 6.65784 12.2449 6.74888C12.3203 6.81517 12.4031 6.92046 12.879 7.71361L14.2507 9.99985H10C10 11.1044 9.10457 11.9998 8 11.9998C6.89543 11.9998 6 11.1044 6 9.99985H1.74929L3.12103 7.71361C3.59692 6.92045 3.67974 6.81518 3.75514 6.74888C3.85868 6.65784 3.97992 6.58919 4.11126 6.54725C4.2069 6.5167 4.33979 6.49985 5.26476 6.49985H6V4.99985H5.26476C4.43891 4.99985 4.02598 4.99985 3.65494 5.11834C3.3266 5.2232 3.02348 5.39482 2.76464 5.62242C2.47214 5.87962 2.25969 6.2337 1.83479 6.94187L0 9.99985V11.9998C0 13.4 0 14.1 0.272484 14.6348C0.512167 15.1052 0.894619 15.4877 1.36502 15.7274C1.8998 15.9998 2.59987 15.9998 4 15.9998H12C13.4001 15.9998 14.1002 15.9998 14.635 15.7274C15.1054 15.4877 15.4878 15.1052 15.7275 14.6348C16 14.1 16 13.4 16 11.9998V9.99985Z" fill="black"/>
</svg>
