<svg width="16" height="16" viewBox="0 0 16 16" fill="none" xmlns="http://www.w3.org/2000/svg">
<path d="M12.4229 11.8886C12.6107 12.0344 12.8325 12.1213 13.0782 12.126C12.6535 12.6661 11.9967 13 11.2798 13C10.2634 13 9.36896 12.3291 9.08383 11.3531L8.65801 9.78115C8.96232 8.64478 9.1481 7.35404 9.6466 6.28243C9.74127 6.07894 9.83324 5.95658 9.91114 5.89609C9.9669 5.85278 10.0152 5.83713 10.1037 5.86085C10.2375 5.89671 10.3804 5.95576 10.4705 6.18356C10.5605 6.41137 10.7916 7.33284 10.7916 7.33284C10.9389 8.00801 11.7363 10.8048 11.8822 11.1532C12.028 11.5016 12.1761 11.6969 12.4229 11.8886Z" fill="black"/>
<path d="M13.2967 10.9493C13.4845 10.899 13.6517 10.7165 13.7853 10.4269L16 3C14.2063 3 12.625 4.17711 12.1093 5.89609L11.8066 7.00606C12.1112 8.14353 12.2964 9.42416 12.796 10.4981C12.8954 10.7118 12.9932 10.843 13.0782 10.909C13.1411 10.9579 13.1979 10.9758 13.2967 10.9493Z" fill="black"/>
<path d="M6.93582 11.3722C6.63817 12.3398 5.7447 13 4.73293 13C4.10073 13 3.51493 12.7423 3.09172 12.3131C3.29557 12.2918 3.48081 12.2115 3.64058 12.0874C3.8803 11.9013 4.04501 11.6317 4.16363 11.3767C4.81429 9.97802 5.09775 8.3163 5.53936 6.84334L6.2161 4.76251C6.48345 3.94045 7.24924 3.384 8.11321 3.384C8.88836 3.384 9.58304 3.83167 9.91114 4.51483C9.64477 4.50312 9.40489 4.58983 9.20489 4.74515C8.96517 4.93131 8.80046 5.20087 8.68185 5.45584C8.11321 7.24975 7.52872 9.44484 6.93582 11.3722Z" fill="black"/>
<path d="M4.39736 7.0509C4.03174 8.27038 3.80308 9.64824 3.26453 10.8059C3.16987 11.0094 3.0779 11.1318 3 11.1923C2.94424 11.2356 2.89594 11.2512 2.80744 11.2275C2.58764 11.1686 2.39246 10.9088 2.25356 10.4836C1.42364 7.94243 0.774387 5.56256 0 3C1.94098 3 3.64733 4.2861 4.18304 6.1528L4.39736 7.0509Z" fill="black"/>
</svg>
