<svg width="16" height="16" viewBox="0 0 16 16" fill="none" xmlns="http://www.w3.org/2000/svg">
<path d="M15 6.75C15 6.33579 14.6642 6 14.25 6C13.8358 6 13.5 6.33579 13.5 6.75V9.25C13.5 9.66421 13.8358 10 14.25 10C14.6642 10 15 9.66421 15 9.25V6.75Z" fill="black"/>
<path d="M12 3.75C12 3.33579 11.6642 3 11.25 3C10.8358 3 10.5 3.33579 10.5 3.75V12.25C10.5 12.6642 10.8358 13 11.25 13C11.6642 13 12 12.6642 12 12.25V3.75Z" fill="black"/>
<path d="M6 1.75C6 1.33579 5.66421 1 5.25 1C4.83579 1 4.5 1.33579 4.5 1.75V14.25C4.5 14.6642 4.83579 15 5.25 15C5.66421 15 6 14.6642 6 14.25V1.75Z" fill="black"/>
<path d="M9 5.75C9 5.33579 8.66421 5 8.25 5C7.83579 5 7.5 5.33579 7.5 5.75V10.25C7.5 10.6642 7.83579 11 8.25 11C8.66421 11 9 10.6642 9 10.25V5.75Z" fill="black"/>
<path d="M3 4.75C3 4.33579 2.66421 4 2.25 4C1.83579 4 1.5 4.33579 1.5 4.75V11.25C1.5 11.6642 1.83579 12 2.25 12C2.66421 12 3 11.6642 3 11.25V4.75Z" fill="black"/>
</svg>
