<svg width="16" height="16" viewBox="0 0 16 16" fill="none" xmlns="http://www.w3.org/2000/svg">
<path d="M0.657854 11.182C0.234626 10.2068 0 9.13083 0 8C0 5.43828 1.20407 3.15778 3.07714 1.69357C2.50027 2.78861 2.30036 4.08303 2.4591 5.41991C2.17606 5.69275 1.99999 6.07581 1.99999 6.49999C1.99999 6.7809 2.07721 7.04378 2.21158 7.26855C1.24212 8.43565 0.679156 9.80079 0.657854 11.182Z" fill="black"/>
<path d="M9.69127 15.8209C9.14609 15.9382 8.58026 16 8 16C5.92154 16 4.0282 15.2074 2.60578 13.9079C2.22737 13.44 1.95143 12.9137 1.79955 12.3469C1.41089 10.8964 1.8584 9.26931 2.97889 7.907C3.04571 7.93176 3.11478 7.95189 3.18571 7.96701C3.66048 9.00914 4.34902 10.0163 5.24248 10.9127C5.64166 11.3131 6.0631 11.6728 6.50002 11.9908L6.49999 12C6.49999 12.7652 7.07296 13.3966 7.81327 13.4885C8.22689 14.5483 8.86845 15.3718 9.69127 15.8209Z" fill="black"/>
<path d="M13.9614 13.3351C13.292 14.0826 12.484 14.7035 11.5778 15.1573C11.2593 15.2154 10.9555 15.2072 10.6742 15.1387C9.94009 14.9601 9.25789 14.3461 8.80249 13.2675C8.81233 13.2612 8.8221 13.2549 8.83178 13.2484C10.6062 13.9049 12.4373 13.9484 13.9614 13.3351Z" fill="black"/>
<path d="M15.6385 10.3849C15.5708 10.6018 15.4942 10.8147 15.409 11.0232C15.2922 11.1789 15.1647 11.3259 15.0267 11.4635C13.7305 12.7556 11.5997 13.1157 9.44349 12.4092C9.48029 12.2791 9.49999 12.1419 9.49999 12C9.49999 11.2679 8.97547 10.6582 8.2817 10.5264C8.27217 9.72554 8.36588 8.86445 8.5813 7.97929C8.75664 7.25884 8.99627 6.5896 9.28237 5.98432C9.35342 5.99464 9.42608 5.99999 9.49999 5.99999C10.1389 5.99999 10.6845 5.60051 10.9007 5.0377C13.2638 5.41348 15.059 6.82515 15.5512 8.66211C15.7003 9.21869 15.7264 9.80127 15.6385 10.3849Z" fill="black"/>
<path d="M13.9463 2.64815C15.0263 3.8473 15.7487 5.37481 15.9457 7.06278C14.9629 5.43577 13.1094 4.34895 10.9271 4.03672C10.8952 3.93831 10.8533 3.84435 10.8028 3.75603C10.834 3.72463 10.8652 3.69378 10.8967 3.66347C11.9014 2.69422 12.9115 2.38306 13.7301 2.58228C13.8027 2.59996 13.8749 2.62191 13.9463 2.64815Z" fill="black"/>
<path d="M6.03991 0.241872C5.54414 0.456464 5.09872 0.752497 4.72331 1.1267C3.77268 2.07426 3.32182 3.4723 3.42489 5.00183C3.44977 5.00061 3.47481 4.99999 3.49999 4.99999C3.87069 4.99999 4.20998 5.13446 4.47174 5.35728C5.23297 4.90382 6.08615 4.53936 7.01065 4.29164C7.36261 4.19733 7.71408 4.12285 8.0633 4.06743C8.24898 3.44987 8.82195 2.99999 9.49999 2.99999C9.69182 2.99999 9.87524 3.036 10.0439 3.10162C10.8702 2.25265 11.8074 1.70519 12.7493 1.56166C11.4211 0.580214 9.77829 0 8 0C7.32376 0 6.66712 0.0839051 6.03991 0.241872Z" fill="black"/>
<path d="M6.86612 11.0179C6.9838 10.8822 7.12544 10.7678 7.28448 10.6813C7.26034 9.74911 7.36353 8.75419 7.60966 7.74282C7.80373 6.9454 8.07204 6.1979 8.39734 5.51694C8.27789 5.38748 8.18094 5.23694 8.11272 5.07153C7.83458 5.11975 7.55323 5.18153 7.26947 5.25757C6.41787 5.48575 5.64909 5.81429 4.97316 6.21609C4.99077 6.30802 4.99999 6.40292 4.99999 6.49999C4.99999 7.06928 4.68285 7.56449 4.21561 7.8186C4.62884 8.64658 5.20458 9.45813 5.95073 10.2067C6.24683 10.5038 6.55293 10.774 6.86612 11.0179Z" fill="black"/>
</svg>
