<svg width="16" height="16" viewBox="0 0 16 16" fill="none" xmlns="http://www.w3.org/2000/svg">
<path d="M5.5 6.5606L6.93934 7.99994L5.5 9.43928C5.20711 9.73218 5.20711 10.2071 5.5 10.4999C5.7929 10.7928 6.26777 10.7928 6.56066 10.4999L8 9.0606L9.43934 10.4999C9.73224 10.7928 10.2071 10.7928 10.5 10.4999C10.7929 10.2071 10.7929 9.73218 10.5 9.43928L9.06066 7.99994L10.5 6.5606C10.7929 6.26771 10.7929 5.79284 10.5 5.49994C10.2071 5.20705 9.73224 5.20705 9.43934 5.49994L8 6.93928L6.56066 5.49994C6.26777 5.20705 5.7929 5.20705 5.5 5.49994C5.20711 5.79284 5.20711 6.26771 5.5 6.5606Z" fill="black"/>
<path fill-rule="evenodd" clip-rule="evenodd" d="M5.96354 14.4488C6.67637 15.1616 7.03279 15.518 7.44378 15.6515C7.8053 15.769 8.19472 15.769 8.55624 15.6515C8.96723 15.518 9.32365 15.1616 10.0365 14.4488L10.4852 14H11.12C12.1281 14 12.6322 14 13.0172 13.8038C13.3559 13.6313 13.6313 13.3559 13.8038 13.0172C14 12.6322 14 12.1281 14 11.12V10.4852L14.4488 10.0364C15.1617 9.32359 15.5181 8.96717 15.6516 8.55618C15.7691 8.19466 15.7691 7.80524 15.6516 7.44372C15.5181 7.03273 15.1617 6.67631 14.4488 5.96348L14 5.51467V4.88002C14 3.87193 14 3.36788 13.8038 2.98284C13.6313 2.64415 13.3559 2.36878 13.0172 2.19621C12.6322 2.00002 12.1281 2.00002 11.12 2.00002H10.4854L10.0365 1.55114C9.32365 0.838307 8.96723 0.481891 8.55624 0.348352C8.19472 0.230888 7.8053 0.230888 7.44378 0.348352C7.03279 0.481891 6.67637 0.838307 5.96354 1.55114L5.51466 2.00002H4.88001C3.87192 2.00002 3.36787 2.00002 2.98283 2.19621C2.64414 2.36878 2.36877 2.64415 2.1962 2.98284C2.00001 3.36788 2.00001 3.87193 2.00001 4.88002V5.51467L1.5512 5.96348C0.838368 6.67631 0.481952 7.03273 0.348413 7.44372C0.230949 7.80524 0.230949 8.19466 0.348413 8.55618C0.481952 8.96717 0.838368 9.32359 1.5512 10.0364L2.00001 10.4852V11.12C2.00001 12.1281 2.00001 12.6322 2.1962 13.0172C2.36877 13.3559 2.64414 13.6313 2.98283 13.8038C3.36787 14 3.87192 14 4.88001 14H5.5148L5.96354 14.4488ZM5.51466 3.50002C5.91249 3.50002 6.29402 3.34199 6.57532 3.06068C6.97364 2.66236 7.35803 2.24071 7.78762 1.87602C7.95403 1.73475 8.05689 1.744 8.2124 1.87602C8.64199 2.24071 9.02638 2.66236 9.4247 3.06068C9.70601 3.34199 10.0875 3.50002 10.4854 3.50002C11.0486 3.50002 11.6185 3.47368 12.1801 3.51956C12.3977 3.53734 12.4639 3.61662 12.4805 3.81993C12.5264 4.38152 12.5 4.95142 12.5 5.51467C12.5 5.91249 12.658 6.29402 12.9394 6.57533C13.3376 6.97363 13.7593 7.358 14.1239 7.78756C14.2652 7.95397 14.256 8.05683 14.1239 8.21234C13.7593 8.64191 13.3376 9.02628 12.9394 9.42457C12.658 9.70588 12.5 10.0874 12.5 10.4852C12.5 11.0485 12.5264 11.6185 12.4805 12.1801C12.4627 12.3977 12.3834 12.4639 12.1801 12.4805C11.6185 12.5264 11.0485 12.5 10.4852 12.5C10.0874 12.5 9.70587 12.6581 9.42456 12.9394C9.02629 13.3376 8.64194 13.7592 8.21241 14.1239C8.04599 14.2652 7.94313 14.2559 7.78762 14.1239C7.35808 13.7592 6.97373 13.3376 6.57546 12.9394C6.29416 12.6581 5.91263 12.5 5.5148 12.5C4.9515 12.5 4.38155 12.5264 3.81992 12.4805C3.60236 12.4627 3.53617 12.3834 3.51955 12.1801C3.47367 11.6185 3.50001 11.0485 3.50001 10.4852C3.50001 10.0874 3.34198 9.70588 3.06067 9.42457C2.66238 9.02627 2.24075 8.6419 1.87608 8.21234C1.74406 8.05683 1.73481 7.95397 1.87608 7.78756C2.24075 7.358 2.66238 6.97363 3.06067 6.57533C3.34198 6.29402 3.50001 5.91249 3.50001 5.51467C3.50001 4.95142 3.47367 4.38152 3.51955 3.81993C3.53617 3.61662 3.60236 3.53734 3.81992 3.51956C4.38151 3.47368 4.95141 3.50002 5.51466 3.50002Z" fill="black"/>
</svg>
